<?xml version="1.0" encoding="UTF-8"?>
<svg version="1.1" xmlns="http://www.w3.org/2000/svg" width="96" height="96">
<path d="M0 0 C-4.39944134 4.77653631 -4.39944134 4.77653631 -7.6875 6 C-10.25549221 6.80584331 -10.25549221 6.80584331 -11.1875 9.5625 C-11.455625 10.366875 -11.72375 11.17125 -12 12 C-12.66 12.33 -13.32 12.66 -14 13 C-14.495 13.99 -14.99 14.98 -15.5 16 C-17 19 -17 19 -19 20 C-19 20.99 -19 21.98 -19 23 C-19.66 23 -20.32 23 -21 23 C-21.10957031 23.70125 -21.21914063 24.4025 -21.33203125 25.125 C-24.41987292 43.6018412 -24.41987292 43.6018412 -30.9375 48.4375 C-33.11237817 50.08513498 -34.41373755 51.79911734 -36 54 C-35.31292969 54.20496094 -34.62585937 54.40992188 -33.91796875 54.62109375 C-33.01691406 54.89050781 -32.11585937 55.15992188 -31.1875 55.4375 C-30.29417969 55.70433594 -29.40085938 55.97117188 -28.48046875 56.24609375 C-23.12669683 57.87330317 -23.12669683 57.87330317 -21 60 C-20.01 60.495 -20.01 60.495 -19 61 C-17.32916181 62.32810215 -15.66270287 63.66172696 -14 65 C-13.01 65.66 -12.02 66.32 -11 67 C-9.64748503 68.31387169 -8.31054623 69.64426252 -7 71 C-9.60582371 71.93065133 -10.64198224 72.14917407 -13.25 71.0625 C-13.8275 70.711875 -14.405 70.36125 -15 70 C-15 69.34 -15 68.68 -15 68 C-23.30566989 65.98709647 -31.49174287 65.43108503 -40 65 C-40 64.34 -40 63.68 -40 63 C-41.03640625 62.87882812 -42.0728125 62.75765625 -43.140625 62.6328125 C-44.51046438 62.46392819 -45.88025349 62.29463589 -47.25 62.125 C-47.93191406 62.04636719 -48.61382812 61.96773437 -49.31640625 61.88671875 C-54.25839339 61.2629728 -57.46771122 60.53228878 -61 57 C-61.66 56.67 -62.32 56.34 -63 56 C-64.2890625 54.4765625 -64.2890625 54.4765625 -65.625 52.625 C-66.29402344 51.71621094 -66.29402344 51.71621094 -66.9765625 50.7890625 C-68 49 -68 49 -68 46 C-68.99 45.34 -69.98 44.68 -71 44 C-71.29296875 41.1796875 -71.29296875 41.1796875 -71.1875 37.875 C-71.16042969 36.77929688 -71.13335937 35.68359375 -71.10546875 34.5546875 C-71.07066406 33.71164063 -71.03585938 32.86859375 -71 32 C-68.69 31.01 -66.38 30.02 -64 29 C-64 28.34 -64 27.68 -64 27 C-63.38125 26.87625 -62.7625 26.7525 -62.125 26.625 C-59.80879168 26.12802644 -59.80879168 26.12802644 -58 24 C-55.90625 23.98828125 -55.90625 23.98828125 -53.5 24.3125 C-52.7059375 24.41175781 -51.911875 24.51101562 -51.09375 24.61328125 C-49 25 -49 25 -47 26 C-46.67 25.34 -46.34 24.68 -46 24 C-44.02 24.99 -42.04 25.98 -40 27 C-39.896875 26.2575 -39.79375 25.515 -39.6875 24.75 C-38.95088361 21.80353443 -37.9141558 20.31293826 -36 18 C-35.34987982 16.69975964 -34.72332894 15.38737121 -34.125 14.0625 C-32.48662144 11.05880598 -31.12569297 9.35378922 -27.8125 8.3125 C-26.9153125 8.1578125 -26.9153125 8.1578125 -26 8 C-26 7.34 -26 6.68 -26 6 C-25.21625 5.87625 -24.4325 5.7525 -23.625 5.625 C-20.85942178 5.20882007 -20.85942178 5.20882007 -19 3 C-16.375 2.875 -16.375 2.875 -14 3 C-13.67 2.34 -13.34 1.68 -13 1 C-10.8203125 0.33203125 -10.8203125 0.33203125 -8.125 -0.1875 C-7.24070313 -0.36667969 -6.35640625 -0.54585937 -5.4453125 -0.73046875 C-3 -1 -3 -1 0 0 Z M-23 11 C-23.66 12.32 -24.32 13.64 -25 15 C-24.01 14.34 -23.02 13.68 -22 13 C-22.33 12.34 -22.66 11.68 -23 11 Z M-29 17 C-32.4599577 19.67360368 -33.06972239 22.84953067 -34 27 C-34.16928543 29.79244045 -34.16928543 29.79244045 -34 32 C-32.35 31.67 -30.7 31.34 -29 31 C-28.61126172 29.04434742 -28.23939167 27.08533496 -27.875 25.125 C-27.66617188 24.03445312 -27.45734375 22.94390625 -27.2421875 21.8203125 C-27.16226563 20.88960937 -27.08234375 19.95890625 -27 19 C-27.66 18.34 -28.32 17.68 -29 17 Z M-48 29 C-47.34 29.66 -46.68 30.32 -46 31 C-46 30.34 -46 29.68 -46 29 C-46.66 29 -47.32 29 -48 29 Z M-36 31 C-35.67 31.99 -35.34 32.98 -35 34 C-35 33.01 -35 32.02 -35 31 C-35.33 31 -35.66 31 -36 31 Z M-60 37 C-60.33 37.33 -60.66 37.66 -61 38 C-61.53597795 42.33175625 -61.80111176 45.85555463 -59.25 49.5 C-55.48464654 52.01023564 -52.35487569 52.34630525 -47.875 51.6875 C-47.25625 51.460625 -46.6375 51.23375 -46 51 C-44.52564745 46.57694234 -44.03724123 40.41620722 -46 36 C-48.3090351 33.60544508 -49.68958354 33.04526907 -53 32.5625 C-56.64920982 33.09467643 -57.70558745 34.19571799 -60 37 Z M-57 54 C-57.33 54.66 -57.66 55.32 -58 56 C-55.36 56.33 -52.72 56.66 -50 57 C-51.2488427 55.4166747 -51.2488427 55.4166747 -53 54 C-54.32 54 -55.64 54 -57 54 Z M-43 58 C-39 59 -39 59 -39 59 Z " fill="#D49117" transform="translate(83,15)"/>
<path d="M0 0 C1.6254308 0.14095064 3.25034051 0.28792087 4.875 0.4375 C5.77992187 0.51871094 6.68484375 0.59992187 7.6171875 0.68359375 C10 1 10 1 12 2 C12.33 1.34 12.66 0.68 13 0 C14.68756133 0.96432076 16.3497306 1.9731657 18 3 C18.928125 3.495 19.85625 3.99 20.8125 4.5 C23.90332153 8.03236746 23.47620343 10.88459243 23.37109375 15.44140625 C23 18 23 18 21 21 C20.34 19.68 19.68 18.36 19 17 C18.71125 17.61875 18.4225 18.2375 18.125 18.875 C17 21 17 21 15 23 C14.690625 21.88625 14.38125 20.7725 14.0625 19.625 C13.17673517 16.2054845 13.17673517 16.2054845 12 14 C12.33 13.34 12.66 12.68 13 12 C9.85157189 10.13426482 7.64747625 9.64414866 4 10 C3.13375 10.37125 2.2675 10.7425 1.375 11.125 C0.59125 11.41375 -0.1925 11.7025 -1 12 C-1.99 11.34 -2.98 10.68 -4 10 C-3.67 10.99 -3.34 11.98 -3 13 C-2.96045766 15.33299825 -2.95598268 17.66708189 -3 20 C-5.5625 17.8125 -5.5625 17.8125 -8 15 C-7.9375 12.5625 -7.9375 12.5625 -7 10 C-6.731875 8.948125 -6.46375 7.89625 -6.1875 6.8125 C-5 4 -5 4 -2.9375 2.75 C-2.298125 2.5025 -1.65875 2.255 -1 2 C-0.67 1.34 -0.34 0.68 0 0 Z M11 5 C11.66 5.66 12.32 6.32 13 7 C13 6.34 13 5.68 13 5 C12.34 5 11.68 5 11 5 Z " fill="#CBA230" transform="translate(24,39)"/>
<path d="M0 0 C0.66 0.66 1.32 1.32 2 2 C2.66 2.33 3.32 2.66 4 3 C5.67083819 4.32810215 7.33729713 5.66172696 9 7 C9.99 7.66 10.98 8.32 12 9 C13.35251497 10.31387169 14.68945377 11.64426252 16 13 C13.39417629 13.93065133 12.35801776 14.14917407 9.75 13.0625 C9.1725 12.711875 8.595 12.36125 8 12 C8 11.34 8 10.68 8 10 C-0.30566989 7.98709647 -8.49174287 7.43108503 -17 7 C-17 6.34 -17 5.68 -17 5 C-17.84304687 4.86722656 -18.68609375 4.73445313 -19.5546875 4.59765625 C-20.65039062 4.42105469 -21.74609375 4.24445313 -22.875 4.0625 C-23.96554688 3.88847656 -25.05609375 3.71445313 -26.1796875 3.53515625 C-29 3 -29 3 -31 2 C-31 1.01 -31 0.02 -31 -1 C-8.31238215 -3.25267128 -8.31238215 -3.25267128 0 0 Z M-20 0 C-16 1 -16 1 -16 1 Z " fill="#C8891D" transform="translate(60,73)"/>
<path d="M0 0 C1 3 1 3 0.0625 5 C-0.288125 5.66 -0.63875 6.32 -1 7 C-1 7.99 -1 8.98 -1 10 C-0.01 10.66 0.98 11.32 2 12 C2 9.69 2 7.38 2 5 C2.99 5.33 3.98 5.66 5 6 C5.6875 8.0625 5.6875 8.0625 6 10 C5.67 10 5.34 10 5 10 C4.55911089 15.90883883 4.55911089 15.90883883 7 21 C10.0999868 21.79148599 12.80525245 22 16 22 C16.99 22 17.98 22 19 22 C19.66 22.99 20.32 23.98 21 25 C23.33294775 25.04241723 25.66702567 25.04092937 28 25 C28.99 25.66 29.98 26.32 31 27 C28.39634072 27.22171552 25.79303507 27.42784859 23.1875 27.625 C22.44951172 27.68945312 21.71152344 27.75390625 20.95117188 27.8203125 C15.33984375 28.2265625 15.33984375 28.2265625 12 26 C10.68 26 9.36 26 8 26 C8.99 26.33 9.98 26.66 11 27 C11 28.65 11 30.3 11 32 C8.08482708 30.92598892 6.22189824 30.22189824 4 28 C3.34 27.67 2.68 27.34 2 27 C0.7109375 25.4765625 0.7109375 25.4765625 -0.625 23.625 C-1.07101563 23.01914063 -1.51703125 22.41328125 -1.9765625 21.7890625 C-3 20 -3 20 -3 17 C-3.99 16.34 -4.98 15.68 -6 15 C-6.29296875 12.1796875 -6.29296875 12.1796875 -6.1875 8.875 C-6.16042969 7.77929688 -6.13335937 6.68359375 -6.10546875 5.5546875 C-6.07066406 4.71164063 -6.03585937 3.86859375 -6 3 C-4.02 2.01 -2.04 1.02 0 0 Z " fill="#D89013" transform="translate(18,44)"/>
<path d="M0 0 C4.45689398 -0.39325535 7.16006828 0.78137278 11 3 C11.66 3.66 12.32 4.32 13 5 C13.639375 5.309375 14.27875 5.61875 14.9375 5.9375 C17.10538698 7.05429026 18.28738152 8.28738152 20 10 C20.886875 10.45375 21.77375 10.9075 22.6875 11.375 C23.450625 11.91125 24.21375 12.4475 25 13 C25.25 15.4375 25.25 15.4375 25 18 C25.185625 18.721875 25.37125 19.44375 25.5625 20.1875 C26 22 26 22 25 24 C24.360625 23.54625 23.72125 23.0925 23.0625 22.625 C19.16056352 20.55458473 15.31560367 19.79918586 11 19 C10.67 17.68 10.34 16.36 10 15 C10.66 14.67 11.32 14.34 12 14 C9.03 13.505 9.03 13.505 6 13 C5.7525 12.13375 5.505 11.2675 5.25 10.375 C3.932663 6.81819009 2.16210438 4.09901628 0 1 C0 0.67 0 0.34 0 0 Z " fill="#D1A02A" transform="translate(17,18)"/>
<path d="M0 0 C0.99 0.33 1.98 0.66 3 1 C2.34 2.65 1.68 4.3 1 6 C0.34 6 -0.32 6 -1 6 C-2.2250724 13.18995898 -2.2250724 13.18995898 0 20 C-3.42346555 23.14958831 -6.44262737 23.56179109 -11 24 C-11.99 21.69 -12.98 19.38 -14 17 C-13.34 17 -12.68 17 -12 17 C-12 14.69 -12 12.38 -12 10 C-11.34 11.32 -10.68 12.64 -10 14 C-9.22678118 11.01758453 -8.58803797 8.02419525 -8 5 C-6.49440461 6.96382007 -5.10868317 8.78263366 -4 11 C-3.8453125 9.1128125 -3.8453125 9.1128125 -3.6875 7.1875 C-3.35141192 4.39500343 -3.19974124 3.25566879 -1.4375 1 C-0.963125 0.67 -0.48875 0.34 0 0 Z " fill="#D3A126" transform="translate(50,46)"/>
<path d="M0 0 C-4.39944134 4.77653631 -4.39944134 4.77653631 -7.6875 6 C-10.25549221 6.80584331 -10.25549221 6.80584331 -11.1875 9.5625 C-11.455625 10.366875 -11.72375 11.17125 -12 12 C-12.99 12.495 -12.99 12.495 -14 13 C-15.13350534 15.01669827 -15.13350534 15.01669827 -16 17 C-16.66 17 -17.32 17 -18 17 C-18 16.34 -18 15.68 -18 15 C-18.66 14.67 -19.32 14.34 -20 14 C-19.34 14 -18.68 14 -18 14 C-18 11.69 -18 9.38 -18 7 C-18.66 6.67 -19.32 6.34 -20 6 C-20 6.66 -20 7.32 -20 8 C-21.65 8 -23.3 8 -25 8 C-25.33 7.34 -25.66 6.68 -26 6 C-25.21625 5.87625 -24.4325 5.7525 -23.625 5.625 C-20.85942178 5.20882007 -20.85942178 5.20882007 -19 3 C-16.375 2.875 -16.375 2.875 -14 3 C-13.67 2.34 -13.34 1.68 -13 1 C-10.8203125 0.33203125 -10.8203125 0.33203125 -8.125 -0.1875 C-7.24070312 -0.36667969 -6.35640625 -0.54585937 -5.4453125 -0.73046875 C-3 -1 -3 -1 0 0 Z " fill="#BC7C1D" transform="translate(83,15)"/>
<path d="M0 0 C0.99 0.33 1.98 0.66 3 1 C3 1.99 3 2.98 3 4 C3.66 4 4.32 4 5 4 C3.71480435 6.86697492 2.42870746 8.97607712 0 11 C-0.66 11 -1.32 11 -2 11 C-1.67 11.99 -1.34 12.98 -1 14 C-1.66 14 -2.32 14 -3 14 C-3.33 16.97 -3.66 19.94 -4 23 C-5.98 22.01 -7.96 21.02 -10 20 C-9.55745705 15.39755333 -9.09881858 12.48617091 -6 9 C-5.34987982 7.69975964 -4.72332894 6.38737121 -4.125 5.0625 C-2.98163728 2.96633501 -1.75722838 1.59748035 0 0 Z " fill="#D79717" transform="translate(53,24)"/>
<path d="M0 0 C0.99 0.66 1.98 1.32 3 2 C4.32 1.34 5.64 0.68 7 0 C7.350625 0.66 7.70125 1.32 8.0625 2 C9.94233773 4.40267624 9.94233773 4.40267624 13.5 4.125 C14.655 4.08375 15.81 4.0425 17 4 C17.99 4.66 18.98 5.32 20 6 C17.39634072 6.22171552 14.79303507 6.42784859 12.1875 6.625 C11.44951172 6.68945312 10.71152344 6.75390625 9.95117188 6.8203125 C4.33984375 7.2265625 4.33984375 7.2265625 1 5 C-0.32 5 -1.64 5 -3 5 C-2.01 5.33 -1.02 5.66 0 6 C0 7.65 0 9.3 0 11 C-2.91517292 9.92598892 -4.77810176 9.22189824 -7 7 C-7.66 6.67 -8.32 6.34 -9 6 C-9.625 3.4375 -9.625 3.4375 -10 1 C-6.87293041 -0.5635348 -3.42017557 -0.39958487 0 0 Z " fill="#997121" transform="translate(29,65)"/>
<path d="M0 0 C4.27557486 1.38327422 8.45999952 3.16876182 11 7 C11.87791237 12.21403607 11.96731892 16.54902162 9 21 C8.34 19.68 7.68 18.36 7 17 C6.71125 17.61875 6.4225 18.2375 6.125 18.875 C5 21 5 21 3 23 C2.80533668 21.20909747 2.61948787 19.41723495 2.4375 17.625 C2.33308594 16.62726562 2.22867188 15.62953125 2.12109375 14.6015625 C2 12 2 12 3 10 C3.33 9.01 3.66 8.02 4 7 C2.71274093 5.29749607 1.37868281 3.62935241 0 2 C0 1.34 0 0.68 0 0 Z " fill="#F7B919" transform="translate(36,39)"/>
<path d="M0 0 C4.45689398 -0.39325535 7.16006828 0.78137278 11 3 C11.66 3.66 12.32 4.32 13 5 C13.639375 5.309375 14.27875 5.61875 14.9375 5.9375 C17.10538698 7.05429026 18.28738152 8.28738152 20 10 C21.64605826 11.03357147 23.30963442 12.04060332 25 13 C24.67 14.32 24.34 15.64 24 17 C21 16 21 16 19 14 C18.154375 13.505 17.30875 13.01 16.4375 12.5 C14 11 14 11 13 9 C12.278125 9.061875 11.55625 9.12375 10.8125 9.1875 C7.31537491 8.95435833 5.74747367 8.16905816 3 6 C1.1875 2.8125 1.1875 2.8125 0 0 Z " fill="#CF9C36" transform="translate(17,18)"/>
<path d="M0 0 C9.65238297 -0.35603052 17.67750438 0.2821123 27 3 C28.37285156 3.23396484 28.37285156 3.23396484 29.7734375 3.47265625 C30.50820312 3.64667969 31.24296875 3.82070312 32 4 C32.495 4.99 32.495 4.99 33 6 C33.98020375 7.0194119 34.97803008 8.02246356 36 9 C33.39417629 9.93065133 32.35801776 10.14917407 29.75 9.0625 C29.1725 8.711875 28.595 8.36125 28 8 C28 7.34 28 6.68 28 6 C19.69433011 3.98709647 11.50825713 3.43108503 3 3 C3 2.34 3 1.68 3 1 C2.01 0.67 1.02 0.34 0 0 Z " fill="#C69236" transform="translate(40,77)"/>
<path d="M0 0 C1.16208984 0.07831055 1.16208984 0.07831055 2.34765625 0.15820312 C4.23224487 0.28616902 6.11620371 0.42335596 8 0.5625 C9 2.5625 10 4.5625 11 6.5625 C10.30777344 6.35753906 9.61554688 6.15257813 8.90234375 5.94140625 C1.48563174 3.89912323 -5.4004079 3.1266201 -13.04296875 2.87109375 C-14.01878906 2.76925781 -14.99460938 2.66742188 -16 2.5625 C-16.33 1.9025 -16.66 1.2425 -17 0.5625 C-11.18784382 -0.3291376 -5.853664 -0.44130742 0 0 Z " fill="#F6A40C" transform="translate(56,74.4375)"/>
<path d="M0 0 C0.33 1.65 0.66 3.3 1 5 C0.01 5.66 -0.98 6.32 -2 7 C-2.99 6.34 -3.98 5.68 -5 5 C-4.67 5.99 -4.34 6.98 -4 8 C-3.96045766 10.33299825 -3.95598268 12.66708189 -4 15 C-6.5625 12.8125 -6.5625 12.8125 -9 10 C-8.91803092 6.63926789 -7.81588433 3.82470895 -6 1 C-3 0 -3 0 0 0 Z " fill="#FDB10B" transform="translate(25,44)"/>
<path d="M0 0 C0.99 0.33 1.98 0.66 3 1 C2.67 2.65 2.34 4.3 2 6 C1.01 6 0.02 6 -1 6 C-1.13277344 6.68707031 -1.26554687 7.37414063 -1.40234375 8.08203125 C-1.57894531 8.98308594 -1.75554688 9.88414063 -1.9375 10.8125 C-2.11152344 11.70582031 -2.28554688 12.59914063 -2.46484375 13.51953125 C-3 16 -3 16 -4 19 C-4.66 19 -5.32 19 -6 19 C-7.5648141 14.1490763 -6.76102035 9.68194354 -5 5 C-3.48177692 2.9456544 -1.99976722 1.63138904 0 0 Z " fill="#F8BA11" transform="translate(54,45)"/>
<path d="M0 0 C1 3 1 3 0.1015625 4.890625 C-0.26195312 5.58671875 -0.62546875 6.2828125 -1 7 C-1.44811137 9.35564596 -1.44811137 9.35564596 -1.625 11.75 C-1.69976563 12.54921875 -1.77453125 13.3484375 -1.8515625 14.171875 C-1.90054687 14.77515625 -1.94953125 15.3784375 -2 16 C-3.32 15.67 -4.64 15.34 -6 15 C-6 11.04 -6 7.08 -6 3 C-4.02 2.01 -2.04 1.02 0 0 Z " fill="#C18B21" transform="translate(18,44)"/>
<path d="M0 0 C0.99 0.33 1.98 0.66 3 1 C3 1.99 3 2.98 3 4 C3.66 4 4.32 4 5 4 C3.70700306 6.88437779 2.34058637 8.87219421 0 11 C-1.98 10.34 -3.96 9.68 -6 9 C-5.67 8.34 -5.34 7.68 -5 7 C-4.71125 6.360625 -4.4225 5.72125 -4.125 5.0625 C-2.98163728 2.96633501 -1.75722838 1.59748035 0 0 Z " fill="#B87D14" transform="translate(53,24)"/>
<path d="M0 0 C0.66 0.99 1.32 1.98 2 3 C1.01 3.495 1.01 3.495 0 4 C0.99 4.33 1.98 4.66 3 5 C3 6.65 3 8.3 3 10 C0.08482708 8.92598892 -1.77810176 8.22189824 -4 6 C-4.66 5.67 -5.32 5.34 -6 5 C-6.625 2.4375 -6.625 2.4375 -7 0 C-4.27584084 -1.36207958 -2.87220643 -0.86166193 0 0 Z " fill="#C18523" transform="translate(26,66)"/>
<path d="M0 0 C0.45375 0.495 0.9075 0.99 1.375 1.5 C2.87635519 3.22609337 2.87635519 3.22609337 5 3 C4.74438677 5.3431213 4.40729228 7.67843403 4 10 C3.01 10.495 3.01 10.495 2 11 C1.67 11.66 1.34 12.32 1 13 C-1.0625 13.625 -1.0625 13.625 -3 14 C-2.88512252 12.41590006 -2.75765492 10.83271037 -2.625 9.25 C-2.55539063 8.36828125 -2.48578125 7.4865625 -2.4140625 6.578125 C-2.00149945 4.00933618 -1.28839043 2.24158985 0 0 Z " fill="#C6A028" transform="translate(53,49)"/>
<path d="M0 0 C0 0.66 0 1.32 0 2 C-1.5625 2.6875 -1.5625 2.6875 -4 3 C-4.99 2.5153125 -5.98 2.030625 -7 1.53125 C-11.73994981 -0.59415215 -16.32862987 -0.3309456 -21.4375 -0.1875 C-22.82098633 -0.16719727 -22.82098633 -0.16719727 -24.23242188 -0.14648438 C-26.48890383 -0.11140953 -28.74413226 -0.06226387 -31 0 C-31 -0.33 -31 -0.66 -31 -1 C-8.8091922 -3.20334262 -8.8091922 -3.20334262 0 0 Z " fill="#F4AD1C" transform="translate(60,73)"/>
<path d="M0 0 C1.65 0 3.3 0 5 0 C5.33 1.65 5.66 3.3 6 5 C5.34 5 4.68 5 4 5 C3.34 6.98 2.68 8.96 2 11 C0.68 10.34 -0.64 9.68 -2 9 C-1.34 6.03 -0.68 3.06 0 0 Z " fill="#F19D09" transform="translate(55,35)"/>
<path d="M0 0 C7.43296154 1.8851714 12.93425142 5.37787425 19 10 C16.16032769 10 13.76264289 9.59732819 11 9 C10.67 7.68 10.34 6.36 10 5 C8.35 4.67 6.7 4.34 5 4 C5 4.33 5 4.66 5 5 C3.35 5 1.7 5 0 5 C-0.5625 3.0625 -0.5625 3.0625 -1 1 C-0.67 0.67 -0.34 0.34 0 0 Z " fill="#DEA821" transform="translate(23,26)"/>
<path d="M0 0 C4.44870215 -0.39253254 7.14243493 0.84694043 11 3 C10.67 4.65 10.34 6.3 10 8 C6.7611766 8 5.63178797 7.80935423 3 6 C1.25 2.875 1.25 2.875 0 0 Z " fill="#947028" transform="translate(17,18)"/>
<path d="M0 0 C-4.625 4.875 -4.625 4.875 -8 6 C-10.6875 5.5625 -10.6875 5.5625 -13 5 C-13 3.68 -13 2.36 -13 1 C-11.39796533 0.63631108 -9.79325797 0.28438048 -8.1875 -0.0625 C-7.29417969 -0.25972656 -6.40085937 -0.45695313 -5.48046875 -0.66015625 C-3 -1 -3 -1 0 0 Z " fill="#986215" transform="translate(83,15)"/>
<path d="M0 0 C3.93673644 1.31224548 6.22719294 2.91910327 9 6 C8 9 8 9 6 12 C5.67 11.34 5.34 10.68 5 10 C5.33 9.34 5.66 8.68 6 8 C5.38125 7.79375 4.7625 7.5875 4.125 7.375 C1.15346355 5.45224112 0.86975341 3.33405473 0 0 Z " fill="#D5B339" transform="translate(31,43)"/>
<path d="M0 0 C2.87592677 2.87592677 2.96378971 6.08928908 3 10 C2.0625 13.5 2.0625 13.5 1 16 C0.67 16 0.34 16 0 16 C-0.19466332 14.20909747 -0.38051213 12.41723495 -0.5625 10.625 C-0.66691406 9.62726562 -0.77132812 8.62953125 -0.87890625 7.6015625 C-1 5 -1 5 0 3 C0 2.01 0 1.02 0 0 Z " fill="#FBC315" transform="translate(39,46)"/>
<path d="M0 0 C2.31 0.33 4.62 0.66 7 1 C7.33 2.32 7.66 3.64 8 5 C6.02 5.66 4.04 6.32 2 7 C1.34 4.69 0.68 2.38 0 0 Z " fill="#DDA71B" transform="translate(24,43)"/>
<path d="M0 0 C0.66 0.33 1.32 0.66 2 1 C-0.00530737 4.00796105 -1.58687035 5.72007638 -5 7 C-5.99 7 -6.98 7 -8 7 C-7.67 5.35 -7.34 3.7 -7 2 C-6.030625 1.855625 -5.06125 1.71125 -4.0625 1.5625 C-1.13513227 1.32437659 -1.13513227 1.32437659 0 0 Z " fill="#E58A1C" transform="translate(64,21)"/>
<path d="M0 0 C0.8971875 0.309375 0.8971875 0.309375 1.8125 0.625 C1.1525 1.285 0.4925 1.945 -0.1875 2.625 C-0.496875 3.305625 -0.80625 3.98625 -1.125 4.6875 C-2.1875 6.625 -2.1875 6.625 -5.1875 7.625 C-5.1875 6.965 -5.1875 6.305 -5.1875 5.625 C-5.8475 5.295 -6.5075 4.965 -7.1875 4.625 C-6.5275 4.625 -5.8675 4.625 -5.1875 4.625 C-5.1875 3.635 -5.1875 2.645 -5.1875 1.625 C-2.1875 -0.375 -2.1875 -0.375 0 0 Z " fill="#9B6818" transform="translate(70.1875,24.375)"/>
<path d="M0 0 C0.33 1.65 0.66 3.3 1 5 C0.01 5.66 -0.98 6.32 -2 7 C-2.33 6.01 -2.66 5.02 -3 4 C-3.99 3.67 -4.98 3.34 -6 3 C-6 2.34 -6 1.68 -6 1 C-3 0 -3 0 0 0 Z " fill="#FCBF1B" transform="translate(25,44)"/>
<path d="M0 0 C1.5625 1.5625 1.5625 1.5625 3 4 C2.6875 7.75 2.6875 7.75 2 11 C1.01 11 0.02 11 -1 11 C-1 7.25838897 -0.48661829 3.71046443 0 0 Z " fill="#AD8E2D" transform="translate(42,51)"/>
<path d="M0 0 C2.16147703 1.08073852 3.41039672 2.19363264 5 4 C5 4.66 5 5.32 5 6 C0.545 5.01 0.545 5.01 -4 4 C-3.67 3.01 -3.34 2.02 -3 1 C-2.01 0.67 -1.02 0.34 0 0 Z " fill="#D4981A" transform="translate(62,75)"/>
<path d="M0 0 C0.99 0.33 1.98 0.66 3 1 C2.34 2.65 1.68 4.3 1 6 C0.34 6 -0.32 6 -1 6 C-1.33 7.65 -1.66 9.3 -2 11 C-2.33 11 -2.66 11 -3 11 C-3.36923077 3.49230769 -3.36923077 3.49230769 -1.5 1 C-1.005 0.67 -0.51 0.34 0 0 Z " fill="#997A34" transform="translate(50,46)"/>
<path d="M0 0 C2.7194239 1.81294927 4.74259377 3.66475218 7 6 C4.39417629 6.93065133 3.35801776 7.14917407 0.75 6.0625 C0.1725 5.711875 -0.405 5.36125 -1 5 C-0.67 3.35 -0.34 1.7 0 0 Z " fill="#5F533E" transform="translate(69,80)"/>
<path d="M0 0 C2.625 0.9375 2.625 0.9375 5 2 C5 3.65 5 5.3 5 7 C0.32307692 5.52307692 0.32307692 5.52307692 -1.3125 2.875 C-1.539375 2.25625 -1.76625 1.6375 -2 1 C-1.34 0.67 -0.68 0.34 0 0 Z " fill="#966519" transform="translate(24,69)"/>
<path d="M0 0 C2.625 1.4375 2.625 1.4375 5 3 C4.67 4.32 4.34 5.64 4 7 C1 6 1 6 -1 4 C-1.33 3.01 -1.66 2.02 -2 1 C-1.34 0.67 -0.68 0.34 0 0 Z " fill="#8A6E29" transform="translate(37,28)"/>
<path d="M0 0 C0.33 0.99 0.66 1.98 1 3 C-1.78823655 4.0326802 -2.8677274 4.04509293 -5.75 3.0625 C-6.4925 2.711875 -7.235 2.36125 -8 2 C-4.77208445 -0.1519437 -3.71599191 -0.20086443 0 0 Z " fill="#A5812D" transform="translate(59,72)"/>
<path d="M0 0 C0.33 0 0.66 0 1 0 C1 3.63 1 7.26 1 11 C-0.32 10.67 -1.64 10.34 -3 10 C-2.690625 9.0925 -2.38125 8.185 -2.0625 7.25 C-1.2727737 4.83436662 -0.57050703 2.47219715 0 0 Z " fill="#C79120" transform="translate(58,41)"/>
<path d="M0 0 C0.33 0.99 0.66 1.98 1 3 C-0.4375 5.1875 -0.4375 5.1875 -2 7 C-2.66 6.67 -3.32 6.34 -4 6 C-4.625 3.9375 -4.625 3.9375 -5 2 C-3.35 1.34 -1.7 0.68 0 0 Z " fill="#B18E2A" transform="translate(18,44)"/>
<path d="M0 0 C0.99 0.33 1.98 0.66 3 1 C2.67 2.65 2.34 4.3 2 6 C1.01 6 0.02 6 -1 6 C-1.99 6.495 -1.99 6.495 -3 7 C-2.38722388 4.03824877 -1.74627478 2.61941217 0 0 Z " fill="#FBB10C" transform="translate(54,45)"/>
<path d="M0 0 C0.99 0.33 1.98 0.66 3 1 C3 1.99 3 2.98 3 4 C3.66 4 4.32 4 5 4 C4.34 5.32 3.68 6.64 3 8 C2.34 8 1.68 8 1 8 C1.33 6.35 1.66 4.7 2 3 C1.01 2.67 0.02 2.34 -1 2 C-0.67 1.34 -0.34 0.68 0 0 Z " fill="#755417" transform="translate(53,24)"/>
<path d="M0 0 C0.125 5.75 0.125 5.75 -1 8 C-1.66 8 -2.32 8 -3 8 C-3.33 5.69 -3.66 3.38 -4 1 C-2 0 -2 0 0 0 Z " fill="#EAB929" transform="translate(48,57)"/>
<path d="M0 0 C0.66 0.33 1.32 0.66 2 1 C2.625 3.5625 2.625 3.5625 3 6 C2.01 6.33 1.02 6.66 0 7 C-0.66 6.67 -1.32 6.34 -2 6 C-1.34 4.02 -0.68 2.04 0 0 Z " fill="#DEA51A" transform="translate(53,49)"/>
<path d="M0 0 C0.99 0.33 1.98 0.66 3 1 C3.6875 3.0625 3.6875 3.0625 4 5 C3.67 5 3.34 5 3 5 C2.67 7.31 2.34 9.62 2 12 C1.67 12 1.34 12 1 12 C0.67 8.04 0.34 4.08 0 0 Z " fill="#B08120" transform="translate(20,49)"/>
<path d="M0 0 C0.66 0 1.32 0 2 0 C2 1.65 2 3.3 2 5 C0.68 5 -0.64 5 -2 5 C-2 2 -2 2 0 0 Z " fill="#CB8715" transform="translate(58,30)"/>
<path d="M0 0 C2 4 2 4 1.125 7.25 C0.75375 8.1575 0.3825 9.065 0 10 C-0.66 9.67 -1.32 9.34 -2 9 C-1.34 6.03 -0.68 3.06 0 0 Z " fill="#C28E28" transform="translate(55,35)"/>
<path d="M0 0 C0.33 0.66 0.66 1.32 1 2 C2.32 2 3.64 2 5 2 C5 3.65 5 5.3 5 7 C3.02 6.01 1.04 5.02 -1 4 C-0.67 2.68 -0.34 1.36 0 0 Z " fill="#8A712F" transform="translate(38,35)"/>
<path d="M0 0 C1.32 0.33 2.64 0.66 4 1 C3.34 2.32 2.68 3.64 2 5 C0.68 4.67 -0.64 4.34 -2 4 C-1.34 2.68 -0.68 1.36 0 0 Z " fill="#A6721A" transform="translate(51,26)"/>
<path d="M0 0 C4.75 -0.125 4.75 -0.125 7 1 C7 1.99 7 2.98 7 4 C6.01 4.33 5.02 4.66 4 5 C2.68 3.35 1.36 1.7 0 0 Z " fill="#B2811F" transform="translate(17,18)"/>
<path d="M0 0 C0.66 0.66 1.32 1.32 2 2 C1.9765625 4.1640625 1.9765625 4.1640625 1.625 6.625 C1.51414063 7.44226562 1.40328125 8.25953125 1.2890625 9.1015625 C1.19367187 9.72804688 1.09828125 10.35453125 1 11 C0.67 11 0.34 11 0 11 C-0.19491452 9.54263913 -0.38069358 8.08405407 -0.5625 6.625 C-0.66691406 5.81289063 -0.77132812 5.00078125 -0.87890625 4.1640625 C-1 2 -1 2 0 0 Z " fill="#DA9C21" transform="translate(59,38)"/>
<path d="M0 0 C6.875 3.75 6.875 3.75 8 6 C1.25 4.375 1.25 4.375 -1 1 C-0.67 0.67 -0.34 0.34 0 0 Z " fill="#EEB93B" transform="translate(34,31)"/>
<path d="M0 0 C1.98 0.66 3.96 1.32 6 2 C6 2.99 6 3.98 6 5 C3.69 4.34 1.38 3.68 -1 3 C-0.67 2.01 -0.34 1.02 0 0 Z " fill="#AB823A" transform="translate(27,29)"/>
<path d="" fill="#000000" transform="translate(0,0)"/>
<path d="" fill="#000000" transform="translate(0,0)"/>
<path d="" fill="#000000" transform="translate(0,0)"/>
<path d="" fill="#000000" transform="translate(0,0)"/>
<path d="" fill="#000000" transform="translate(0,0)"/>
<path d="" fill="#000000" transform="translate(0,0)"/>
<path d="" fill="#000000" transform="translate(0,0)"/>
<path d="" fill="#000000" transform="translate(0,0)"/>
<path d="" fill="#000000" transform="translate(0,0)"/>
<path d="" fill="#000000" transform="translate(0,0)"/>
<path d="" fill="#000000" transform="translate(0,0)"/>
<path d="" fill="#000000" transform="translate(0,0)"/>
<path d="" fill="#000000" transform="translate(0,0)"/>
<path d="" fill="#000000" transform="translate(0,0)"/>
<path d="" fill="#000000" transform="translate(0,0)"/>
<path d="" fill="#000000" transform="translate(0,0)"/>
<path d="" fill="#000000" transform="translate(0,0)"/>
<path d="" fill="#000000" transform="translate(0,0)"/>
<path d="" fill="#000000" transform="translate(0,0)"/>
<path d="" fill="#000000" transform="translate(0,0)"/>
<path d="" fill="#000000" transform="translate(0,0)"/>
<path d="" fill="#000000" transform="translate(0,0)"/>
<path d="" fill="#000000" transform="translate(0,0)"/>
<path d="" fill="#000000" transform="translate(0,0)"/>
<path d="" fill="#000000" transform="translate(0,0)"/>
<path d="" fill="#000000" transform="translate(0,0)"/>
<path d="" fill="#000000" transform="translate(0,0)"/>
<path d="" fill="#000000" transform="translate(0,0)"/>
<path d="" fill="#000000" transform="translate(0,0)"/>
<path d="" fill="#000000" transform="translate(0,0)"/>
<path d="" fill="#000000" transform="translate(0,0)"/>
<path d="" fill="#000000" transform="translate(0,0)"/>
<path d="" fill="#000000" transform="translate(0,0)"/>
<path d="" fill="#000000" transform="translate(0,0)"/>
<path d="" fill="#000000" transform="translate(0,0)"/>
<path d="" fill="#000000" transform="translate(0,0)"/>
<path d="" fill="#000000" transform="translate(0,0)"/>
<path d="" fill="#000000" transform="translate(0,0)"/>
<path d="" fill="#000000" transform="translate(0,0)"/>
<path d="" fill="#000000" transform="translate(0,0)"/>
<path d="" fill="#000000" transform="translate(0,0)"/>
<path d="" fill="#000000" transform="translate(0,0)"/>
<path d="" fill="#000000" transform="translate(0,0)"/>
<path d="" fill="#000000" transform="translate(0,0)"/>
<path d="" fill="#000000" transform="translate(0,0)"/>
<path d="" fill="#000000" transform="translate(0,0)"/>
<path d="" fill="#000000" transform="translate(0,0)"/>
<path d="" fill="#000000" transform="translate(0,0)"/>
<path d="" fill="#000000" transform="translate(0,0)"/>
<path d="" fill="#000000" transform="translate(0,0)"/>
<path d="" fill="#000000" transform="translate(0,0)"/>
<path d="" fill="#000000" transform="translate(0,0)"/>
<path d="" fill="#000000" transform="translate(0,0)"/>
<path d="" fill="#000000" transform="translate(0,0)"/>
<path d="" fill="#000000" transform="translate(0,0)"/>
</svg>
